<svg style="fill: skyblue;" xmlns="http://www.w3.org/2000/svg" xml:space="preserve" width="11.425cm" height="13.3108cm" version="1.1" 
viewBox="0 0 11425 13310.82" >
 <g> 
  <g>
   <path d="M-10239.3 24257.55l363.18 0c1203.43,0 2224.3,764.72 2623.29,1830.64 398.78,-1066.38 1419.83,-1831.55 2623.51,-1831.55 217.2,0 395.42,-38.03 598.73,9.2 -473.85,-1038.08 -797.74,-2060.15 -1014.2,-3184.27 -382.8,-1982.72 -348.51,-4065.77 158.43,-6106.55 -2943.12,2305.79 -5140.85,5576.22 -6077.2,9422.97 257.67,80.76 504.27,186.13 724.26,333.31l0 -473.75z"/>
   <path d="M-15639.74 24619.65c-1350.68,0 -2438.92,1094.63 -2438.92,2445.35l0 2438.89 2445.33 0c1350.7,-6.39 2438.95,-1088.22 2438.95,-2438.89 0,-1350.72 -1094.67,-2445.35 -2445.36,-2445.35z"/>
   <path d="M-2184.01 24619.65l0 2445.35c0,1350.67 -1094.63,2438.89 -2445.31,2438.89 -1350.68,0 -2445.35,-1088.22 -2445.35,-2438.89 0,-1350.72 1094.67,-2445.35 2445.35,-2445.35l2445.31 0zm-1082.43 2629.21l-618.59 -178.5c-37.82,107.42 -84.85,196.63 -141.79,267.26 -57.29,70.84 -135.96,135.12 -236.6,193.25 -134.02,77.37 -262.08,112.71 -384.57,106.22 -122.27,-6.98 -230.33,-55.35 -323.6,-145.77l1522.91 -879.22c-59.16,-120.61 -90.28,-183.23 -93.38,-188.56 -129.3,-224.02 -291.08,-389.4 -484.61,-495.79 -193.57,-106.33 -400.3,-153.5 -620.43,-141.75 -220.03,11.92 -434.31,78.1 -642.87,198.58 -219.29,126.54 -389.43,286.67 -511.07,480.66 -121.96,194.09 -185.17,401.35 -189.65,622.47 -4.98,220.98 52.42,434.45 171.38,640.51 120.43,208.56 279.15,366.53 476.25,472.5 197.09,106.02 415.04,152.15 654.01,137.49 239.22,-14.36 481.26,-92.01 725.98,-233.33 391.69,-226.14 624.03,-511.71 696.63,-856.02zm-1081.83 -632.92l-858.2 495.49c-43.5,-122.57 -45.54,-237.97 -6.63,-346.4 38.59,-108.27 114.55,-195.37 228.14,-260.92 113.24,-65.37 226.66,-87.63 339.97,-67.09 113.38,20.53 212.02,80.18 296.72,178.92z"/>
   <path d="M-5424.32 14786.78l-0.95 0c-4382.55,859.86 -8469.37,3910.52 -10401.69,8311.12 -181.02,411.59 -334.96,827.94 -474.4,1246.3 213.18,-52.18 432.56,-87.56 661.5,-87.56 576.84,0 1113.14,175.68 1559.72,475.15l0 -474.24 363.22 0c575.81,0 1111.08,175.3 1557.2,473.75l0 -473.75 363.22 0c25.37,0 48.93,6.85 74.19,7.52 953.91,-3790.39 3134.01,-7013.65 6043.89,-9293.4 106.04,-84.01 178.25,-137.61 254.1,-184.89z"/>
   <path d="M-8987.79 29504.67l1556.92 0 0 -2438.9c0,-1350.68 -1094.67,-2445.35 -2445.35,-2445.35l0 407.14c543.87,512.41 888.43,1233.77 888.43,2038.1l0 2439.01z"/>
   <path d="M-10908.2 29504.67l1556.91 0 0 -2438.9c0,-1350.68 -1094.67,-2445.35 -2445.35,-2445.35l0 407.14c543.88,512.41 888.44,1233.77 888.44,2038.1l0 2439.01z"/>
   <path d="M-12828.62 29504.67l1556.91 0 0 -2438.9c0,-1350.68 -1094.63,-2445.35 -2445.31,-2445.35l0 407.14c543.84,512.41 888.4,1233.77 888.4,2038.1l0 2439.01z"/>
  </g>
  <path d="M7813.75 3214.18c1058.92,-27.11 2050.25,607.09 2640.58,1441.09 119.66,169.03 353.4,547.11 428.01,933.76 74.61,386.65 194.77,1212.03 7.41,1705.81 -187.36,493.78 -338.04,809.81 -498.15,1033.24 -209.14,292 -445.87,519.73 -686.3,702.63 -561.39,427.07 -1091.12,593.66 -1772.98,664.57 -196.22,20.41 -295.34,5.22 -257.43,69.83 161.79,301.06 321.73,604.26 483.08,905.9 148.56,303.4 557.84,917.59 796.36,1205.95 53.75,64.94 86.58,102.18 145.74,162.17 183.69,186.35 552.18,591.13 699.37,758.72 -259.41,59.85 -1319.91,224.4 -1636.95,160.54 -207.89,-41.87 -492.45,-183.89 -638.57,-284.88 -90.43,-62.49 -163.17,-157.98 -237.15,-232.15 -429.6,-430.6 -1335.99,-1802.07 -1480.59,-2009.11l-123.79 485.93c-135.42,591.92 -289.18,1630.6 -469.03,2086.25 -88.03,-27.43 -164.86,-128.21 -226.98,-182.63 -201.78,-176.66 -470.29,-480.35 -623.48,-707.17 -185.87,-275.12 -337.81,-577.02 -410.87,-899.47 -103.07,-454.89 -43.36,-1139.38 -11.47,-1487.69 31.9,-348.31 70.12,-489.58 107.64,-690.17 42.37,-226.52 75.4,-438.61 123.21,-675.06 89.4,-442.35 175.91,-880.42 291.23,-1288.32 11.68,-142.99 42.3,-257.48 53.02,-409.47 9.66,-136.87 16.83,-296.3 2.63,-416.78 -14.2,-120.48 -39.84,-454.21 -389.57,-910.78 -736.09,-960.9 -1870.33,-1357.93 -3013.67,-1643.78 -137.02,-34.23 -590.21,-88.51 -679.64,-155.61 213.17,-168.7 375.57,-158.56 705.21,-179.85 329.65,-21.3 454.79,17.41 934.78,-298.77 150.4,-104.3 433.01,-340.07 554.02,-509.25 230,-321.56 273.17,-476.78 332.25,-715.55 59.08,-238.76 48.97,-586.97 -56.28,-849.59l-105.75 -307.8c-49.76,-91.09 -72.89,-492.33 109.3,-333.5 77.41,67.46 129.34,170.14 200.64,249.29 197.65,219.37 263.71,277.64 513.82,454.95 141.07,101.55 304.8,201.92 444.45,304.2 307.65,225.34 516.84,348.52 828.88,560.15l484.24 334.81c87.67,58.62 224.84,174.95 296.13,254.39 213.92,238.38 334.04,360.26 493.66,589.53 611.49,878.43 892.26,1867.34 901.94,2961.4 3.5,393.17 -75.23,923.98 -200.4,1291.1 -66.9,196.22 -456.23,1067.5 -534.84,1328.52 155.49,-154.69 915.53,-1499.51 986.73,-1637.59l252.02 69.92c800.1,242.92 1499.88,-172.35 1364.36,-944.53 -29.77,-169.64 -158.03,-364.92 -289.04,-479.88 -71.44,-62.65 -146.36,-119.29 -231.37,-173.38 -138.45,-88.1 -449.64,-210.85 -601.27,-239.2l-5.14 -2052.69z"/>
 </g>
</svg>
